<?xml version="1.0" encoding="UTF-8" standalone="no"?>
<!DOCTYPE svg PUBLIC "-//W3C//DTD SVG 1.1//EN" "http://www.w3.org/Graphics/SVG/1.1/DTD/svg11.dtd">
<svg xmlns="http://www.w3.org/2000/svg" xmlns:xlink="http://www.w3.org/1999/xlink" xmlns:ev="http://www.w3.org/2001/xml-events" xmlns:v="https://vecta.io/nano" width="1920" height="1080" viewBox="0 0 1920 1080" v:styles="{&quot;stroke-width&quot;:1,&quot;stroke&quot;:&quot;#000&quot;,&quot;fill&quot;:&quot;#fff&quot;,&quot;font-size&quot;:16,&quot;font-family&quot;:&quot;sans-serif&quot;,&quot;text-anchor&quot;:&quot;middle&quot;,&quot;dominant-baseline&quot;:&quot;middle&quot;}">
<style>
.title {
  font: bold 20px sans-serif;
}
.desc {
  font: 14px sans-serif;
}
</style>
<rect width="100%" height="100%" fill="#1e1e1e"/>
<g transform="translate(0 0)">
<g transform="translate(100 100)">
<rect width="200" height="150" rx="10" ry="10" fill="#383838" stroke="#888" stroke-width="1"/>
<text x="100" y="30" class="title" fill="#fff" text-anchor="middle">Load Image</text>
<text x="100" y="60" class="desc" fill="#ccc" text-anchor="middle">Load an image file</text>
<text x="100" y="90" class="desc" fill="#ccc" text-anchor="middle">from disk</text>
</g>
<g transform="translate(100 300)">
<rect width="200" height="150" rx="10" ry="10" fill="#383838" stroke="#888" stroke-width="1"/>
<text x="100" y="30" class="title" fill="#fff" text-anchor="middle">Load Mask</text>
<text x="100" y="60" class="desc" fill="#ccc" text-anchor="middle">Load a mask image</text>
<text x="100" y="90" class="desc" fill="#ccc" text-anchor="middle">from disk</text>
</g>
<g transform="translate(400 200)">
<rect width="200" height="150" rx="10" ry="10" fill="#383838" stroke="#888" stroke-width="1"/>
<text x="100" y="30" class="title" fill="#fff" text-anchor="middle">Enhanced Apply Alpha</text>
<text x="100" y="60" class="desc" fill="#ccc" text-anchor="middle">Apply mask as alpha</text>
<text x="100" y="90" class="desc" fill="#ccc" text-anchor="middle">channel to image</text>
</g>
<g transform="translate(700 200)">
<rect width="200" height="150" rx="10" ry="10" fill="#383838" stroke="#888" stroke-width="1"/>
<text x="100" y="30" class="title" fill="#fff" text-anchor="middle">Enhanced PSD Layer</text>
<text x="100" y="60" class="desc" fill="#ccc" text-anchor="middle">Create a PSD layer</text>
<text x="100" y="90" class="desc" fill="#ccc" text-anchor="middle">with image and mask</text>
</g>
<g transform="translate(1000 200)">
<rect width="200" height="150" rx="10" ry="10" fill="#383838" stroke="#888" stroke-width="1"/>
<text x="100" y="30" class="title" fill="#fff" text-anchor="middle">Enhanced Save PSD</text>
<text x="100" y="60" class="desc" fill="#ccc" text-anchor="middle">Save PSD file with</text>
<text x="100" y="90" class="desc" fill="#ccc" text-anchor="middle">all layers</text>
</g>
<!-- Connections -->
<g stroke="#aaa" stroke-width="2" fill="none">
<path d="M300 175 L400 250"/>
<path d="M300 375 L400 300"/>
<path d="M600 250 L700 250"/>
<path d="M900 250 L1000 250"/>
</g>
</g>
<g transform="translate(100 500)">
<text x="0" y="0" fill="#fff" text-anchor="start" class="title">ComfyUI PSD Plugin Workflow Example</text>
<text x="0" y="30" fill="#ccc" text-anchor="start" class="desc">This workflow demonstrates how to create a PSD file with layers and masks using the ComfyUI PSD plugin.</text>
<text x="0" y="60" fill="#ccc" text-anchor="start" class="desc">1. Load an image and a mask</text>
<text x="0" y="90" fill="#ccc" text-anchor="start" class="desc">2. Apply the mask as an alpha channel to the image</text>
<text x="0" y="120" fill="#ccc" text-anchor="start" class="desc">3. Create a PSD layer with the image and mask</text>
<text x="0" y="150" fill="#ccc" text-anchor="start" class="desc">4. Save the PSD file with all layers</text>
</g>
</svg>